<?xml version="1.0" encoding="UTF-8" standalone="no"?><!DOCTYPE svg PUBLIC "-//W3C//DTD SVG 1.1//EN" "http://www.w3.org/Graphics/SVG/1.1/DTD/svg11.dtd"><svg viewBox="0 0 1100 1000" version="1.1" xmlns="http://www.w3.org/2000/svg" xmlns:xlink="http://www.w3.org/1999/xlink" xml:space="preserve" xmlns:serif="http://www.serif.com/" style="fill-rule:evenodd;clip-rule:evenodd;stroke-linejoin:round;stroke-miterlimit:2;"><g transform="matrix(1,0,0,1,50,0)"><path d="M50,675C50,620 5,575 -50,575L-50,575L-50,425L-50,425C-23,425 2,414 21,396C39,377 50,352 50,325L50,200C50,90 140,0 250,0L275,0L275,575L650,575L650,725C650,738 645,751 635,760C626,770 613,775 600,775L50,775L50,675Z"/></g><g transform="matrix(1,0,0,1,50,0)"><path d="M650,305L650,500L350,500L350,200C350,147 371,96 409,59C446,21 497,-0 550,0L750,0C803,-0 854,21 891,59C929,96 950,147 950,200L950,326C950,381 994,425 1049,425L1050,425L1050,575L1049,575C994,575 950,619 950,674L950,800C950,853 929,904 891,941C854,979 803,1000 750,1000L200,1000C160,1000 122,984 94,956C66,928 50,890 50,850L625,850C652,850 677,839 696,821C714,802 725,777 725,750L725,271C741,253 750,230 750,205C750,150 705,105 650,105C595,105 550,150 550,205C550,260 595,305 650,305Z"/></g></svg>